<svg width="22" height="26" viewBox="0 0 22 26" fill="none" xmlns="http://www.w3.org/2000/svg">
<path d="M10.5735 24.9327L10.5915 24.9462L10.6117 24.9563C10.6163 24.9586 10.6211 24.961 10.6261 24.9636C10.7068 25.0043 10.8469 25.0749 11 25.0749C11.1531 25.0749 11.2932 25.0043 11.3739 24.9636C11.3789 24.961 11.3837 24.9586 11.3883 24.9563L11.4022 24.9494L11.4152 24.9407C11.6318 24.7963 14.0792 23.1024 16.4757 20.5609C18.8626 18.0295 21.25 14.604 21.25 11C21.25 5.37881 16.6688 0.75 11 0.75C5.33197 0.75 0.75 5.33197 0.75 11C0.75 14.4899 3.15064 17.9161 5.54085 20.4737C7.80948 22.9012 10.119 24.5985 10.5226 24.8951C10.5462 24.9125 10.5633 24.9251 10.5735 24.9327ZM11.0029 23.4989C10.1316 22.8307 8.01994 21.1403 6.07758 18.9505C4.00417 16.6129 2.17166 13.7588 2.17166 11C2.17166 6.11503 6.11503 2.17166 11 2.17166C15.885 2.17166 19.8283 6.11503 19.8283 11C19.8283 13.8519 17.9945 16.718 15.923 19.0362C13.983 21.2073 11.8739 22.8546 11.0029 23.4989Z" fill="black" stroke="black" stroke-width="0.5"/>
<path d="M11 6.85C8.67326 6.85 6.85 8.73682 6.85 11C6.85 13.2647 8.73534 15.15 11 15.15C13.2647 15.15 15.15 13.2647 15.15 11C15.15 8.73682 13.3267 6.85 11 6.85ZM11 13.6985C9.56769 13.6985 8.36212 12.4929 8.36212 11.0606C8.36212 9.6283 9.56769 8.42273 11 8.42273C12.4323 8.42273 13.6379 9.6283 13.6379 11.0606C13.6379 12.495 12.4908 13.6985 11 13.6985Z" fill="black" stroke="black" stroke-width="0.3"/>
</svg>
