<svg width="49" height="47" viewBox="0 0 49 47" fill="none" xmlns="http://www.w3.org/2000/svg">
<path d="M0.825378 26.9305L9.80795 0H21.1083L12.4046 26.8724L0.825378 26.9305Z" fill="white"/>
<path d="M18.7327 26.9305L27.7152 0H39.0156L30.3215 26.8724L18.7327 26.9305Z" fill="white"/>
<path d="M21.5026 0.969116L15.9631 17.7632L18.454 25.4479L24.2628 8.71201L21.5026 0.969116Z" fill="white"/>
<path d="M33.8223 17.9376L39.4196 0.969116L48.3445 26.9887L36.871 26.8724L33.8223 17.9376Z" fill="white"/>
<path d="M7.9998 46.9516C6.63414 46.9516 5.29734 46.719 3.98938 46.2441C2.68143 45.7693 1.48888 45.0522 0.411743 44.0734L2.73913 41.2728C3.5566 41.9415 4.39331 42.4744 5.25887 42.8718C6.11481 43.2691 7.0573 43.4629 8.07674 43.4629C8.89421 43.4629 9.52895 43.3175 9.98097 43.0171C10.433 42.7167 10.6542 42.3 10.6542 41.767V41.7186C10.6542 41.4569 10.6061 41.234 10.5099 41.0402C10.4137 40.8464 10.2406 40.6623 9.97135 40.4878C9.70206 40.3134 9.33661 40.1487 8.87498 39.9742C8.40373 39.7998 7.79784 39.6254 7.04769 39.4316C6.14366 39.2087 5.32619 38.9567 4.58566 38.6854C3.85474 38.414 3.22961 38.0749 2.7199 37.6678C2.21018 37.2608 1.80625 36.7666 1.52735 36.1658C1.24845 35.565 1.10419 34.8188 1.10419 33.9272V33.8788C1.10419 33.0551 1.25807 32.3089 1.5562 31.6499C1.86396 30.9909 2.28712 30.4192 2.83531 29.9346C3.38349 29.4501 4.03747 29.0818 4.80685 28.8299C5.56662 28.5682 6.41294 28.4423 7.32659 28.4423C8.63454 28.4423 9.84632 28.6361 10.9427 29.0334C12.0391 29.4307 13.0489 29.9928 13.9721 30.7293L11.9333 33.714C11.135 33.1616 10.3464 32.7353 9.58666 32.4155C8.81727 32.0957 8.0575 31.9406 7.28812 31.9406C6.51873 31.9406 5.95131 32.0957 5.56662 32.3864C5.18193 32.6868 4.98958 33.055 4.98958 33.5105V33.559C4.98958 33.8497 5.04729 34.1017 5.15308 34.3148C5.26848 34.528 5.46083 34.7219 5.75897 34.8963C6.04749 35.0707 6.4418 35.2355 6.95151 35.3808C7.45161 35.5359 8.08636 35.72 8.85574 35.9235C9.75977 36.1658 10.5676 36.4371 11.2793 36.7375C11.991 37.0379 12.5873 37.3965 13.0681 37.8229C13.5586 38.2396 13.9241 38.7338 14.1645 39.3056C14.4145 39.8676 14.5396 40.546 14.5396 41.3406V41.3891C14.5396 42.2806 14.3761 43.0753 14.0587 43.773C13.7413 44.4707 13.2893 45.0522 12.7123 45.527C12.1352 46.0019 11.4524 46.3604 10.6542 46.6124C9.84632 46.8256 8.97115 46.9516 7.9998 46.9516Z" fill="white"/>
<path d="M24.2917 47C22.9837 47 21.7623 46.7578 20.6371 46.2829C19.5119 45.7984 18.5405 45.1491 17.7231 44.3157C16.9056 43.4823 16.2708 42.5035 15.8092 41.3697C15.3476 40.2359 15.1168 39.0246 15.1168 37.7454V37.6969C15.1168 36.4081 15.3476 35.2064 15.8092 34.0823C16.2708 32.9582 16.9056 31.9697 17.7231 31.1266C18.5405 30.2738 19.5215 29.6052 20.6563 29.1207C21.8008 28.6361 23.0607 28.3842 24.4359 28.3842C25.2726 28.3842 26.0324 28.452 26.7249 28.5877C27.4173 28.7233 28.0424 28.9171 28.6002 29.1497C29.158 29.392 29.6774 29.6827 30.1582 30.0219C30.6391 30.3611 31.0815 30.739 31.4854 31.1557L28.9849 34.0629C28.2829 33.433 27.5712 32.9291 26.8499 32.5705C26.1286 32.212 25.3111 32.0279 24.4071 32.0279C23.6569 32.0279 22.9645 32.1732 22.3297 32.464C21.695 32.7547 21.1468 33.1617 20.6852 33.6753C20.2236 34.1889 19.8677 34.7897 19.608 35.4681C19.3484 36.1464 19.2234 36.8732 19.2234 37.6388V37.6873C19.2234 38.4625 19.3484 39.1893 19.608 39.8774C19.8677 40.5654 20.2139 41.1662 20.6659 41.6798C21.118 42.1934 21.6662 42.6005 22.3009 42.9009C22.9356 43.2013 23.6377 43.3466 24.4071 43.3466C25.4265 43.3466 26.2921 43.1625 27.0038 42.7846C27.7058 42.4066 28.4079 41.893 29.1099 41.2437L31.6104 43.7924C31.1488 44.2866 30.6776 44.7324 30.1775 45.1297C29.687 45.5271 29.1388 45.8662 28.5521 46.1473C27.9655 46.4283 27.3211 46.6415 26.6287 46.7868C25.9459 46.9225 25.1572 47 24.2917 47Z" fill="white"/>
<path d="M41.0931 47C39.7851 47 38.5637 46.7578 37.4385 46.2829C36.3133 45.7984 35.3419 45.1491 34.5244 44.3157C33.707 43.4823 33.0722 42.5035 32.6106 41.3697C32.149 40.2359 31.9182 39.0246 31.9182 37.7454V37.6969C31.9182 36.4081 32.149 35.2064 32.6106 34.0823C33.0722 32.9582 33.707 31.9697 34.5244 31.1266C35.3419 30.2738 36.3229 29.6052 37.4577 29.1207C38.6022 28.6361 39.862 28.3842 41.2373 28.3842C42.074 28.3842 42.8338 28.452 43.5262 28.5877C44.2187 28.7233 44.8438 28.9171 45.4016 29.1497C45.9594 29.392 46.4788 29.6827 46.9596 30.0219C47.4405 30.3611 47.8829 30.739 48.2868 31.1557L45.7863 34.0629C45.0842 33.433 44.3726 32.9291 43.6513 32.5705C42.93 32.212 42.1125 32.0279 41.2085 32.0279C40.4583 32.0279 39.7659 32.1732 39.1311 32.464C38.4964 32.7547 37.9482 33.1617 37.4866 33.6753C37.0249 34.1889 36.6691 34.7897 36.4094 35.4681C36.1498 36.1464 36.0247 36.8732 36.0247 37.6388V37.6873C36.0247 38.4625 36.1498 39.1893 36.4094 39.8774C36.6691 40.5654 37.0153 41.1662 37.4673 41.6798C37.9194 42.1934 38.4675 42.6005 39.1023 42.9009C39.737 43.2013 40.4391 43.3466 41.2085 43.3466C42.2279 43.3466 43.0935 43.1625 43.8051 42.7846C44.5072 42.4066 45.2093 41.893 45.9113 41.2437L48.4118 43.7924C47.9502 44.2866 47.479 44.7324 46.9789 45.1297C46.4884 45.5271 45.9402 45.8662 45.3535 46.1473C44.7669 46.4283 44.1225 46.6415 43.4301 46.7868C42.7472 46.9225 41.9586 47 41.0931 47Z" fill="white"/>
</svg>
