<svg width="30" height="18" viewBox="0 0 30 18" fill="none" xmlns="http://www.w3.org/2000/svg">
<path d="M9.74984 17.8908C7.93653 17.4356 6.92631 15.9876 6.92311 13.8392C6.92209 13.1523 6.97156 12.8231 7.14224 12.3813C7.56061 11.2984 8.66827 10.4813 10.1258 10.1806C10.8511 10.031 11.0745 9.87028 11.0745 9.49839C11.0745 9.3817 11.1609 9.03418 11.2664 8.72613C11.7456 7.32667 12.633 6.16004 13.5813 5.6828C14.5737 5.18333 15.0747 5.07069 16.2752 5.07716C17.9802 5.08636 18.8308 5.4579 20.0205 6.71305L20.6748 7.40335L21.261 7.19957C24.0979 6.21329 26.926 7.8922 27.154 10.6979L27.2163 11.4655L27.775 11.6666C29.3704 12.2408 30.1203 13.4466 29.9844 15.2192C29.8955 16.3784 29.3559 17.3039 28.5012 17.7634L28.0994 17.9794L19.17 17.9966C12.3081 18.0099 10.1269 17.9854 9.74984 17.8908V17.8908Z" fill="white"/>
<path d="M3.05525 16.5292C1.98447 16.2754 0.849868 15.3322 0.317827 14.2535C0.0160256 13.6417 0 13.5517 0 12.4692C0 11.4396 0.0257554 11.2745 0.266012 10.7632C0.772497 9.68553 1.74291 8.90682 2.9605 8.60106C3.21747 8.53653 3.45893 8.43353 3.49708 8.37217C3.53524 8.31081 3.57762 7.97656 3.59126 7.62939C3.67602 5.47322 5.09456 3.57338 7.0753 2.96324C8.14541 2.63361 9.4898 2.71469 10.6537 3.17907C11.0229 3.32635 10.9813 3.35793 11.7619 2.33722C12.2235 1.73357 13.1562 0.982829 13.9197 0.600401C14.7437 0.18767 15.6006 -0.00248098 16.6254 2.4428e-05C19.4897 0.00703284 21.9582 1.79377 22.871 4.52065C23.1627 5.39191 23.1481 5.63592 22.8041 5.64311C22.654 5.64625 22.2239 5.7287 21.8482 5.82633L21.1653 6.00385L20.5421 5.38238C18.7851 3.6301 15.9177 3.25135 13.48 4.44959C12.5062 4.92829 11.7236 5.61554 11.1325 6.51116C10.7111 7.14968 10.1738 8.34084 10.1738 8.63658C10.1738 8.84639 10.0034 8.95123 9.27594 9.18916C7.0236 9.92582 5.70897 11.6271 5.70988 13.804C5.71018 14.5963 5.9148 15.5658 6.19884 16.1211C6.30592 16.3304 6.36566 16.5295 6.3316 16.5634C6.24451 16.6503 3.44263 16.621 3.05525 16.5292V16.5292Z" fill="white"/>
</svg>
