<svg width="16" height="22" viewBox="0 0 16 22" fill="none" xmlns="http://www.w3.org/2000/svg">
<path d="M7.99986 0.693115C5.06786 0.693115 2.68186 3.07912 2.68186 6.01112V9.11412H1.95086C0.958856 9.11412 0.151855 9.92111 0.151855 10.9121V19.5071C0.151855 20.4991 0.958856 21.3061 1.95086 21.3061H14.0479C15.0399 21.3061 15.8469 20.4991 15.8469 19.5071V10.9121C15.8469 9.92012 15.0399 9.11412 14.0479 9.11412H13.3179V6.01112C13.3179 3.07912 10.9319 0.693115 7.99986 0.693115ZM3.40086 6.01112C3.40086 3.47612 5.46386 1.41212 7.99986 1.41212C10.5359 1.41212 12.5989 3.47512 12.5989 6.01112V9.11412H3.40086V6.01112ZM14.0489 9.83412C14.6439 9.83412 15.1279 10.3181 15.1279 10.9131V19.5081C15.1279 20.1031 14.6439 20.5871 14.0489 20.5871H1.95086C1.35586 20.5871 0.871856 20.1031 0.871856 19.5081V10.9131C0.871856 10.3181 1.35586 9.83412 1.95086 9.83412H3.04086H12.9579H14.0489Z" fill="#E60000"/>
<path d="M7.99981 11.6582C6.77481 11.6582 5.77881 12.6542 5.77881 13.8792C5.77881 14.6492 6.17281 15.3482 6.81981 15.7532V17.5712C6.81981 18.2222 7.34881 18.7512 7.99981 18.7512C8.65081 18.7512 9.17981 18.2222 9.17981 17.5712V15.7532C9.82681 15.3482 10.2208 14.6492 10.2208 13.8792C10.2208 12.6552 9.22481 11.6582 7.99981 11.6582ZM8.66081 15.2202C8.53781 15.2812 8.46081 15.4062 8.46081 15.5432V17.5722C8.46081 17.8262 8.25381 18.0332 7.99981 18.0332C7.74581 18.0332 7.53881 17.8262 7.53881 17.5722V15.5432C7.53881 15.4062 7.46081 15.2812 7.33881 15.2202C6.81981 14.9642 6.49781 14.4502 6.49781 13.8802C6.49781 13.0522 7.17181 12.3782 7.99981 12.3782C8.82781 12.3782 9.50181 13.0522 9.50181 13.8802C9.50181 14.4502 9.17981 14.9642 8.66081 15.2202Z" fill="#E60000"/>
</svg>
