<svg width="20" height="13" viewBox="0 0 20 13" fill="none" xmlns="http://www.w3.org/2000/svg">
<path d="M18.2941 0H1.70593C0.765266 0 0 0.808976 0 1.80337V11.1966C0 12.191 0.765266 13 1.70593 13H18.2941C19.2347 13 20 12.191 20 11.1966V1.80337C20 0.808976 19.2347 0 18.2941 0ZM19.2998 11.1966C19.2998 11.7829 18.8486 12.2598 18.2941 12.2598H1.70593C1.15138 12.2598 0.700219 11.7829 0.700219 11.1966V1.80337C0.700219 1.21715 1.15138 0.740214 1.70593 0.740214H18.2941C18.8486 0.740214 19.2998 1.21715 19.2998 1.80337V11.1966Z" fill="#E60000"/>
<path d="M5.3356 2.00977H2.76085C2.35881 2.00977 2.03174 2.33626 2.03174 2.73758V5.43214C2.03174 5.83346 2.35881 6.15996 2.76085 6.15996H5.3356C5.73763 6.15996 6.06471 5.83346 6.06471 5.43214V2.73758C6.06471 2.33626 5.73763 2.00977 5.3356 2.00977ZM5.36449 5.43214C5.36449 5.44724 5.35073 5.46098 5.3356 5.46098H2.76085C2.74572 5.46098 2.73196 5.44724 2.73196 5.43214V2.73758C2.73196 2.72248 2.74572 2.70875 2.76085 2.70875H5.3356C5.35073 2.70875 5.36449 2.72248 5.36449 2.73758V5.43214V5.43214Z" fill="#E60000"/>
<path d="M4.94535 9.65479H2.36329C2.16993 9.65479 2.01318 9.81125 2.01318 10.0043C2.01318 10.1973 2.16993 10.3538 2.36329 10.3538H4.94535C5.13872 10.3538 5.29546 10.1973 5.29546 10.0043C5.29546 9.81125 5.13872 9.65479 4.94535 9.65479Z" fill="#E60000"/>
<path d="M9.27836 9.65479H6.6963C6.50293 9.65479 6.34619 9.81125 6.34619 10.0043C6.34619 10.1973 6.50293 10.3538 6.6963 10.3538H9.27836C9.47173 10.3538 9.62847 10.1973 9.62847 10.0043C9.62847 9.81125 9.47173 9.65479 9.27836 9.65479Z" fill="#E60000"/>
<path d="M13.6104 9.65479H11.0283C10.835 9.65479 10.6782 9.81125 10.6782 10.0043C10.6782 10.1973 10.835 10.3538 11.0283 10.3538H13.6104C13.8038 10.3538 13.9605 10.1973 13.9605 10.0043C13.9605 9.81125 13.8038 9.65479 13.6104 9.65479Z" fill="#E60000"/>
<path d="M17.9434 9.65479H15.3613C15.168 9.65479 15.0112 9.81125 15.0112 10.0043C15.0112 10.1973 15.168 10.3538 15.3613 10.3538H17.9434C18.1368 10.3538 18.2935 10.1973 18.2935 10.0043C18.2935 9.81125 18.1368 9.65479 17.9434 9.65479Z" fill="#E60000"/>
</svg>
