<svg width="19" height="14" viewBox="0 0 19 14" fill="none" xmlns="http://www.w3.org/2000/svg">
<path d="M17.5983 0H1.40165C0.62854 0 0 0.65625 0 1.46289V12.5371C0 13.3438 0.62854 14 1.40165 14H17.5983C18.3715 14 19 13.3438 19 12.5371V1.46289C19 0.65625 18.3715 0 17.5983 0ZM11.6111 7.00024L17.8125 2.60321V11.3968L11.6111 7.00024ZM17.5983 1.16667C17.6407 1.16667 17.6837 1.19183 17.721 1.22942L9.5 7.05844L1.27902 1.22942C1.31632 1.19183 1.35928 1.16667 1.40165 1.16667H17.5983ZM1.1875 11.3968V2.60321L7.38849 6.99995L1.1875 11.3968ZM1.40165 12.8333C1.35928 12.8333 1.31632 12.8081 1.27902 12.7705L8.403 7.71929L9.15287 8.25098C9.16336 8.25845 9.17482 8.26332 9.1863 8.26819C9.19429 8.27159 9.20229 8.27498 9.20999 8.27927C9.2283 8.28948 9.24541 8.29812 9.26459 8.30633C9.34055 8.33894 9.41936 8.36111 9.49923 8.36111L9.5 8.36092L9.50077 8.36111C9.58065 8.36111 9.65945 8.33894 9.73541 8.30633C9.7546 8.29812 9.7717 8.28948 9.79001 8.27927C9.79771 8.27498 9.80571 8.27159 9.8137 8.26819C9.82518 8.26332 9.83664 8.25845 9.84713 8.25098L10.5966 7.71953L17.721 12.7706C17.6837 12.8081 17.6407 12.8333 17.5983 12.8333H1.40165Z" fill="white"/>
<path d="M17.5983 0H1.40165C0.62854 0 0 0.65625 0 1.46289V12.5371C0 13.3438 0.62854 14 1.40165 14H17.5983C18.3715 14 19 13.3438 19 12.5371V1.46289C19 0.65625 18.3715 0 17.5983 0ZM11.6111 7.00024L17.8125 2.60321V11.3968L11.6111 7.00024ZM17.5983 1.16667C17.6407 1.16667 17.6837 1.19183 17.721 1.22942L9.5 7.05844L1.27902 1.22942C1.31632 1.19183 1.35928 1.16667 1.40165 1.16667H17.5983ZM1.1875 11.3968V2.60321L7.38849 6.99995L1.1875 11.3968ZM1.40165 12.8333C1.35928 12.8333 1.31632 12.8081 1.27902 12.7705L8.403 7.71929L9.15287 8.25098C9.16336 8.25845 9.17482 8.26332 9.1863 8.26819C9.19429 8.27159 9.20229 8.27498 9.20999 8.27927C9.2283 8.28948 9.24541 8.29812 9.26459 8.30633C9.34055 8.33894 9.41936 8.36111 9.49923 8.36111L9.5 8.36092L9.50077 8.36111C9.58065 8.36111 9.65945 8.33894 9.73541 8.30633C9.7546 8.29812 9.7717 8.28948 9.79001 8.27927C9.79771 8.27498 9.80571 8.27159 9.8137 8.26819C9.82518 8.26332 9.83664 8.25845 9.84713 8.25098L10.5966 7.71953L17.721 12.7706C17.6837 12.8081 17.6407 12.8333 17.5983 12.8333H1.40165Z" stroke="white"/>
</svg>
