<svg width="16" height="15" viewBox="0 0 16 15" fill="none" xmlns="http://www.w3.org/2000/svg">
<path d="M8 0C3.58203 0 0 3.44305 0 7.6896C0 11.0876 2.292 13.9693 5.47119 14.9859C5.87109 15.0563 6.01709 14.8188 6.01709 14.6161C6.01709 14.433 6.00977 13.8266 6.00586 13.1846C3.78125 13.6492 3.31103 12.2778 3.31103 12.2778C2.94678 11.3898 2.42284 11.1533 2.42284 11.1533C1.6958 10.6765 2.478 10.6858 2.478 10.6858C3.28122 10.7393 3.70409 11.4781 3.70409 11.4781C4.41797 12.6533 5.57714 12.3135 6.03222 12.1164C6.10494 11.6208 6.31197 11.281 6.54003 11.0895C4.76416 10.8952 2.896 10.2353 2.896 7.28878C2.896 6.44866 3.20802 5.76344 3.71875 5.22511C3.6372 5.02987 3.36181 4.24748 3.79784 3.18914C3.79784 3.18914 4.46875 2.98263 5.99803 3.97763C6.63572 3.80632 7.31981 3.72184 7.99998 3.71902C8.67967 3.72184 9.36423 3.80725 10.0029 3.97856C11.5293 2.98263 12.2012 3.19007 12.2012 3.19007C12.6387 4.24936 12.3633 5.0308 12.2812 5.22511C12.7939 5.76344 13.1035 6.44868 13.1035 7.28878C13.1035 10.2428 11.2324 10.8933 9.4502 11.0838C9.7383 11.3223 9.99317 11.7897 9.99317 12.5069C9.99317 13.5347 9.98242 14.3636 9.98242 14.617C9.98242 14.8216 10.1279 15.061 10.5332 14.9859C13.71 13.9674 16 11.0857 16 7.6896C16 3.44305 12.418 0 8 0Z" fill="#FFE400"/>
</svg>
