<svg width="22" height="15" viewBox="0 0 22 15" fill="none" xmlns="http://www.w3.org/2000/svg">
<path fill-rule="evenodd" clip-rule="evenodd" d="M21.1139 3.23597C21.1139 3.23597 20.9054 1.76632 20.2658 1.11894C19.4551 0.269664 18.5459 0.265636 18.1291 0.215873C15.1448 1.65739e-08 10.6681 0 10.6681 0H10.6586C10.6586 0 6.18213 1.65739e-08 3.19758 0.215873C2.78076 0.265636 1.87201 0.269664 1.06088 1.11894C0.42132 1.76632 0.213267 3.23597 0.213267 3.23597C0.213267 3.23597 0 4.96177 0 6.68757V8.30579C0 10.0314 0.213267 11.7572 0.213267 11.7572C0.213267 11.7572 0.42132 13.2268 1.06088 13.8742C1.87201 14.7237 2.93763 14.6965 3.41227 14.7855C5.11864 14.9493 10.6633 15 10.6633 15C10.6633 15 15.1448 14.9931 18.1291 14.7775C18.5459 14.7277 19.4551 14.7237 20.2658 13.8742C20.9054 13.2268 21.1139 11.7572 21.1139 11.7572C21.1139 11.7572 21.3267 10.0314 21.3267 8.30579V6.68757C21.3267 4.96177 21.1139 3.23597 21.1139 3.23597ZM8.46171 10.2662L8.46077 4.2741L14.2232 7.28045L8.46171 10.2662Z" fill="#FFE400"/>
</svg>
