<svg version="1" xmlns="http://www.w3.org/2000/svg" width="2666.667" height="2666.667" viewBox="0 0 2000.000000 2000.000000"><path d="M390.1 38.5c-1.2 3.1-2.1 6.2-2.1 6.9 0 .7-.3 1.6-.7 2-.4.3-.8 1.2-.9 1.9-.1.7-4.5 13.8-9.7 29.2-5.2 15.4-15.3 45.5-22.5 67-11.5 34-49.7 147.4-59.8 177.5-2 5.8-3.7 11.2-3.9 12-.2.8-9.9 29.6-21.5 64-35 104-38.4 113.8-63.6 189-13.4 39.9-24.4 72.5-24.4 72.5-.1 0-15.2 45.2-15.4 46-.2.5-.6 1.7-.9 2.5-.3.8-5.7 16.8-12 35.5-16.6 49.7-47.3 141-104 309.7-15.7 46.5-28.4 84.8-28.2 85 .2.2 11.3.2 24.7.2 13.3-.1 89.3-.5 168.8-.9 120.8-.6 183.2-.9 275.1-1.4l10.6-.1 2-6.3c1.2-3.4 8.5-25.8 16.3-49.7 7.8-23.9 17.3-53.2 21.2-65 3.8-11.8 8.2-25.3 9.8-30 1.5-4.7 8.8-26.7 16-49 12-36.8 20.5-63 31-95 7-21.4 16.8-51.3 30.5-93.5C634 725.4 641 704 642 701s8-24.4 15.5-47.5 17.3-53 21.7-66.5c4.4-13.5 11.1-34.2 15-46 3.8-11.8 7.8-24 8.9-27 1-3 7.9-24.4 15.4-47.5s15.4-47.2 17.5-53.5c2.1-6.3 9.7-29.7 17-52 12.3-38 23-70.6 32.1-98.5 12.2-37.4 16-48.9 28.8-88.5 7.8-23.9 14.8-45.3 15.6-47.5.7-2.2 7.5-22.9 15-46s14-43 14.5-44.3c.6-1.3 1-2.5 1-2.7 0-.3-105.3-.5-233.9-.5h-234l-2 5.5zM1131.3 39.7c-2.2 7.2-39 116.7-40 119.3-.3.8-.7 1.9-.9 2.5-.1.5-3.9 11.8-8.3 25-4.5 13.2-14.6 43.3-22.6 67-7.9 23.6-24.1 71.8-36 107-11.9 35.2-23.2 68.9-25.1 75-2 6-3.9 11.9-4.4 13-.5 1.1-6.7 19.5-13.9 41-7.2 21.4-20.3 60.6-29.2 87-49.8 148-81.1 241.1-81.3 242-.2.5-.6 1.7-.9 2.5-.3.8-5.7 16.8-12 35.5-28.5 85-53.4 159-73.2 217.9-11.8 35.1-21.5 64.1-21.5 64.4 0 .4 238.5-.4 393-1.3 32.7-.2 65.6-.4 73-.4l13.6-.1 3.4-10.8c1.8-5.9 6.6-20.6 10.6-32.7 3.9-12.1 12-36.9 17.9-55 5.9-18.2 13.1-40.2 16-49 2.9-8.8 10.3-31.5 16.5-50.5 6.2-19 13.4-41 16-49 2.6-8 9.1-28 14.5-44.5s11.7-35.9 14-43c2.4-7.2 9.6-29.2 16-49s11.9-36.7 12.2-37.5c.4-.8.7-1.7.8-2 0-.3 1-3.4 2.2-7 4.8-14.6 19-58 31.8-97.5 7.6-23.1 15.7-47.9 18-55 2.3-7.2 9.7-29.9 16.4-50.5 6.7-20.6 13.4-40.9 14.8-45 1.4-4.1 2.6-8 2.7-8.5.2-.9 19.6-60.2 25.1-77 1.3-3.9 9-27.3 17-52 8.1-24.8 15.5-47.5 16.5-50.5s7.8-23.7 15-46 14.9-45.7 17-52c2.1-6.3 9.3-28.4 16-49 6.7-20.6 14.6-44.7 17.4-53.5 2.9-8.8 6.7-20.4 8.4-25.7 1.8-5.3 3.2-10.1 3.2-10.7 0-.8-68.1-1.1-233.8-1.1h-233.8l-2.1 6.7zM832.6 204.6c-24.1 72.5-44.3 133.5-45.1 135.4-1.4 3.6-38.3 114.3-38.9 117-.4 1.5-20.4 61.6-72.6 218.7l-29.1 87.2 7.2 21.8c3.9 12 8.8 27 10.9 33.3 2.1 6.3 8.9 27 15 46 6.2 19 12.2 37.6 13.5 41.5 3.6 10.8 26.4 81 29.2 90 1.4 4.4 2.9 8.9 3.4 10 .4 1.1 3.3 9.9 6.4 19.5 14.1 43.7 17.4 53.3 17.9 52 1.5-3.9 6.9-19.1 8.6-24 1-3 3.7-10.7 6-17 2.2-6.3 4.3-12.2 4.5-13 .4-1.3 8.4-24.3 9.8-28 .3-.8 2.4-6.7 4.6-13 2.1-6.3 5.4-15.6 7.1-20.5 1.8-5 5.2-14.6 7.5-21.5 2.4-6.9 6.7-19 9.5-27s6.4-18.3 8-23c1.6-4.7 5.4-15.5 8.4-24s10.2-29.2 16.1-46c5.8-16.8 12.1-34.8 14-40 1.8-5.2 5.4-15.6 8-23 2.5-7.4 5.1-14.6 5.7-16 .5-1.4 1.8-5 2.8-8 1-3 8-23.1 15.5-44.5 7.6-21.5 15.7-44.6 18-51.5 2.4-6.9 7.1-20.4 10.5-30 3.4-9.6 6.8-19.3 7.5-21.5.7-2.2 3.9-11.2 7-20s7.3-21 9.5-27c2.1-6.1 6.8-19.6 10.5-30 3.7-10.5 7.3-20.8 8-23 .7-2.2 3.9-11.2 7-20s6.1-17.1 6.5-18.5c.4-1.4 3.8-11.1 7.5-21.5 3.7-10.5 7.9-22.5 9.3-26.7l2.6-7.8-2.1-6.2c-3-9-5.5-16-6.4-18.3-.5-1.1-2-5.2-3.3-9-1.4-3.9-3.3-9.5-4.5-12.5-5.4-15-24.4-68.1-25.7-72-.8-2.5-1.9-5.4-2.4-6.5-.5-1.1-4.1-11-8-22-10.2-28.7-13.1-36.7-14-39-.5-1.1-4.5-12.4-9.1-25-4.5-12.7-10.1-28.6-12.6-35.5-2.5-6.9-6-17-8-22.5-1.9-5.5-3.8-10.9-4.3-12-.5-1.1-3.2-8.5-6-16.5s-5.7-16-6.4-17.9c-1.3-3.3-2.6.5-45 128.5zM1606.1 108.8c-6.3 19.1-11.7 35.1-12 35.7-.3.5-.6 1.4-.7 2-.1.5-6.4 19.4-13.9 42-7.5 22.5-13.8 41.4-13.9 42-.2.5-.6 1.7-.9 2.5-.3.8-6 17.9-12.7 38-6.6 20.1-44.5 134.1-84.1 253.5-39.7 119.3-74.2 223.1-76.6 230.4-2.9 8.6-4.3 14.6-4 16.5.2 1.7 3.9 13 8.1 25.1 4.3 12.1 8.8 25.1 10.1 29 1.3 3.8 6.5 18.9 11.5 33.5 5 14.6 10 29 11 32s6 17.4 11 32c13.8 39.9 18.8 54.4 22.6 66 1.9 5.8 3.9 11.4 4.4 12.5.5 1.1 4.3 12.1 8.5 24.5s12.2 35.5 17.7 51.5c5.5 15.9 12.3 35.9 15.1 44.2l5.2 15.3 5.5.1c28 .3 76 .8 134.5 1.4 38.5.3 85.3.8 104 1 32.2.4 139.1 1.4 201.8 1.9 20 .2 28.7-.1 28.7-.8 0-.6-.7-3.1-1.6-5.6-2.3-6.5-18.4-53-19.4-56-.4-1.4-4.3-12.4-8.5-24.5s-8.5-24.5-9.5-27.5-5.3-15.4-9.5-27.5-8.3-23.8-9-26c-.7-2.2-3.6-10.5-6.3-18.5-2.8-8-8.7-25.1-13.2-38-4.5-12.9-10.6-30.5-13.5-39-5.2-15.2-13-37.7-31.5-91-5.1-14.6-9.8-28.3-10.5-30.5-.7-2.2-5-14.6-9.5-27.5-10.6-30.6-13.9-40.2-18.4-53.5-2.1-6.1-4.1-11.9-4.6-13-.5-1.1-1.8-4.9-3-8.5-1.2-3.6-5.3-15.5-9.2-26.5-3.8-11-7.8-22.7-8.9-26-1.1-3.3-3.8-11-5.9-17-4.6-13.2-21-60.7-28.7-83-3-8.8-6.9-20.3-8.8-25.5-7.7-22.2-13.1-37.8-26.5-76.3-7.7-22.5-15.7-45.5-17.6-51-2-5.6-4.6-13.4-5.9-17.2-1.3-3.9-6.2-18.3-11-32-4.8-13.8-11.7-33.8-15.5-44.5-3.7-10.7-7-20.2-7.3-21-.3-.8-1.7-4.9-3.1-9-1.4-4.1-5.7-16.7-9.6-28-4-11.3-8-23-9-26s-3.6-10.7-5.9-17c-8.4-24.3-22.4-64.8-24.9-72.3-1.5-4.2-2.9-7.7-3.2-7.7-.3 0-5.6 15.6-11.9 34.8zM985.7 1198.6c-.1.1-5.8.4-12.7.8-6.9.3-14.5.8-17 1.1-2.5.2-7 .7-10 1-5.3.5-11.5 1.4-15.5 2.1-1 .2-3.7.6-6 1-24.1 3.5-57.5 13.3-83.6 24.4-14.5 6.2-40 19-43 21.6-.8.8-1.9 1.4-2.3 1.4-1 0-18.8 11.4-27.1 17.4-38.4 27.5-71.6 63-96.9 103.4-11.2 17.8-19 32.7-29.4 56.2-13.1 29.3-25.2 76.9-27.8 109-.3 3.6-.8 7.6-1.1 9-.9 4.2-1 56.9-.2 66.8.7 8.5 1.2 12.7 2.5 23.2.2 1.9.7 5.5 1 8 .9 7.2 6.2 32.6 9 43 3.2 12 10.7 34.2 14.8 44 1.8 4.1 3.9 9.1 4.7 11 3.6 8.8 17.4 35.2 23.2 44.4 16.4 26.2 31.6 45.5 52.7 66.6 35 35.2 74.2 61.4 120 80.5 6.3 2.6 12.4 5.2 13.5 5.6 4.5 2 27 9 36.1 11.3 18.5 4.7 33 7.5 46.9 9 3.3.4 7.1.9 8.4 1.1 16.1 2.7 75.8 2.7 100.6 0 2.8-.3 10-1.3 16-2.1 6.1-.9 12.5-1.8 14.4-2 1.9-.3 5.5-.9 8-1.5s5.7-1.3 7.1-1.5c1.4-.3 7.7-1.8 14-3.4 6.3-1.6 12.4-3.2 13.4-3.5 19.7-5 55.8-20.9 78.5-34.5 16.5-9.9 38.1-25.3 48.6-34.7 1.2-1 5.4-4.7 9.5-8.2 4.1-3.6 14.7-13.6 23.5-22.3l16-15.8-11.2-11.2c-6.2-6.2-29.6-29.8-52-52.5l-40.8-41.2-8 7.2c-32 28.6-67.2 52.1-96 64-9.7 4-27.4 9.1-39 11.1-1.6.3-4 .8-5.2 1-2.4.5-10.4 1.4-22.8 2.5-8.8.9-42.7.6-49-.4-23.6-3.5-35.3-6.5-53-13.5-16.1-6.4-40.3-20.7-53.5-31.7-15.8-13.1-34.4-34.9-46.2-53.8-16.1-26.2-29.5-62.8-33.3-91.5-.4-3-.9-6.4-1.1-7.5-2.3-12-2.3-56.4 0-69.5.3-1.4.7-4.1 1-6 5-31.6 16.5-63 32.6-89.6 27.1-44.4 70.5-78.3 117.7-91.9 5.1-1.4 10.4-2.8 11.9-3.1 1.5-.3 3-.7 3.4-.9.4-.2 2.9-.7 5.6-1.1 2.7-.3 5.2-.8 5.5-1 .4-.2 3.5-.7 7-1 3.5-.3 7.8-.8 9.4-1 4.2-.5 35.3-.5 39 0 1.7.3 6.2.7 10 1.1 5.7.6 18.4 2.9 27.7 5 36.9 8.4 81.9 34 123.7 70.3 4 3.5 7.7 6 8.1 5.5 5.3-6 16.3-18.5 36-41.3 7.8-9.1 15.4-17.9 16.9-19.5 1.4-1.7 6.9-8 12.1-14 5.2-6.1 9.7-11.2 10-11.5.3-.3 4.6-5.2 9.5-11s9.2-10.7 9.5-11c.3-.3 2.4-2.7 4.8-5.4l4.2-4.9-5.8-5.6c-18.1-17.3-45.8-39.7-58.9-47.6-1.8-1.1-7.5-4.6-12.8-7.8-12.1-7.4-27.9-15.4-42-21.4-10.3-4.3-36.7-13.7-41.8-14.7-1.2-.3-4.9-1.3-8.2-2.2-3.3-.9-6.7-1.8-7.5-1.9-18.4-4.2-21.2-4.8-35-7-13.5-2.2-14.7-2.4-22.5-3.1-3.8-.3-8.6-.8-10.5-1-11.8-1.1-58.4-2.5-59.3-1.8zM1681.7 1198.6c-.1.1-5.8.4-12.7.8-6.9.3-14.5.8-17 1-6.5.7-17.4 1.9-18 2.1-.3 0-3.2.5-6.5.9-7.6 1-26.8 4.9-37.6 7.6-45.2 11.4-92.1 33.7-130.5 62.1-72.9 53.8-125.8 138-143.8 228.9-2.5 12.7-3 15.7-4.1 24.5-.4 2.7-.8 6.1-1 7.4-.3 1.4-.7 6.3-1.1 11-.3 4.8-.7 10.8-.9 13.6-.5 6.7-.5 40.6 0 47.5 1.4 20.4 1.5 21.1 3.1 33 1.8 14.2 7 39.6 10 50 9 30.5 16.1 48.6 28.3 72.5 8 15.7 10.7 20.5 16.4 29.3 2.6 4 4.7 7.5 4.7 7.8 0 .3.5 1 1 1.7.6.7 4.3 5.7 8.2 11.2 6.2 8.7 13.3 17.5 23.3 29 13.6 15.7 37.4 37.2 56 50.7 43.9 31.7 98.2 55.6 149 65.4 2.2.4 4.2.8 4.5.9.4.1 4.3.7 13 2 21 3.2 32.9 3.9 63.5 4 23.2 0 50.9-1 52.5-2 .3-.1 3.8-.6 7.7-.9 4-.4 11.2-1.3 16-2.2 4.9-.8 10-1.7 11.5-1.9 4.6-.6 17.8-3.6 28.8-6.6 40.8-10.9 74.5-26.7 112-52.7 3.7-2.5 23.2-17.7 25.5-19.8 1.1-1.1 5.6-5 10-8.9 4.4-3.8 14.7-13.6 23-21.7l14.9-14.8-23.1-23.3c-12.8-12.7-36.2-36.3-52-52.4l-28.9-29.2-3.5 3.2c-2 1.8-6.1 5.4-9.3 8.2-3.2 2.7-6.3 5.5-7 6.1-4.9 4.6-27.6 21.3-39.1 28.9-39.3 25.9-65.9 35.3-111 39.4-9.4.8-43.4.6-49.5-.3-1.9-.3-5.1-.8-7-1-28.7-3.9-58.3-15.3-83.6-32.2-20-13.4-40.1-32.8-53.5-51.7-14-19.8-27.6-47.5-34.3-69.7-3.4-11.4-7.3-28.2-8.1-35-.4-3-.8-5.7-1-6-.9-1.5-1.9-20.6-1.9-36.5-.1-22.9.9-33.7 4.5-52 15.3-77 64.5-138.5 132.3-165.5 7.4-2.9 22.9-7.6 28.2-8.6 1.5-.3 3.1-.7 3.4-.9.9-.6 12.7-2.4 19.7-3.1 3.2-.3 6.4-.7 7.2-1 1.7-.6 34.1-.5 39.6.1 2.2.2 6.5.6 9.5.9 3 .3 6.6.8 8 1.1 1.4.3 4.1.7 6 1 4.9.6 22.3 5 29.5 7.3 32.1 10.5 69.2 32.9 105.9 64l10 8.5 1.9-2.4c2.3-2.9 10.8-12.8 15.8-18.4 5-5.6 7.1-8.1 29.5-34 10.9-12.7 20.1-23.2 20.4-23.5.3-.3 4.8-5.5 10-11.5 5.2-6.1 10.1-11.7 10.9-12.6.9-.8 3-3.3 4.8-5.5 1.7-2.1 4.5-5.4 6.2-7.3 1.7-1.9 3.1-3.9 3.1-4.4 0-1.2-7.4-8.2-27.4-25.8-5.8-5.1-23.7-18.6-33.1-25-11.8-8-33-20.4-33.7-19.7-.2.2-1.6-.6-3.3-1.8-2.4-1.6-16.1-7.9-27-12.5-1.1-.4-3.8-1.6-6-2.5-18.5-7.6-61.8-18.5-86.5-21.9-2.5-.3-5.6-.8-7-1-2.3-.4-5.8-.8-20-2-12.8-1.2-58.4-2.7-59.3-1.9zM280.7 1200.6c-.1.1-6 .4-13.2.8-7.1.4-14.3.8-16 1.1-1.6.2-5 .6-7.5.9-22.8 2.4-50.1 9.3-72.5 18.1-9.9 3.9-29.9 13.5-35 16.7-1.1.7-5.8 3.8-10.5 6.9-54.8 36-88.5 93.1-93.7 158.4-1.4 18.1-.3 51 2.1 64 .3 1.6.8 4.8 1.2 7 1.2 7.6 6.3 26.1 9.3 33.8 20.6 51.8 62.7 87.9 132.7 113.8 27.1 10 54.8 18.4 90.4 27.5 55.5 14.3 80.3 22 104.7 32.5 34.6 15 48.2 27.9 52.9 49.9 2 9.4 1.4 26.9-1.2 35-7.2 22-26.9 38.1-55.9 45.6-15.3 3.9-24.8 4.9-48.5 4.9-26 0-37.3-1-58.2-5-28.6-5.6-60.6-18-89.7-34.7-4.6-2.6-8.5-4.8-8.7-4.8-1.4 0-40.4-26-47.3-31.6-.9-.7-5-3.9-9.2-7.2l-7.6-6-11.4 13.6c-6.3 7.5-12.4 14.8-13.6 16.2-3 3.5-5.3 6.2-8.9 10.7-2.5 3-35.2 42.2-43.2 51.8-.9 1.1-3.9 4.7-6.7 8-2.7 3.3-5.8 6.9-6.8 8-1 1.1-2.7 3.2-3.7 4.6-1.9 2.6-1.9 2.6.8 5 53.3 46.3 105.4 75.4 170.7 95 5.5 1.7 10.8 3.2 11.9 3.4 1 .3 4.3 1.1 7.3 2 7.5 2.2 26.9 6.4 37.3 8 1.9.3 6 1 9 1.5 5.6 1 8 1.3 18.5 2.5 3.3.4 7.1.9 8.5 1.1 12.1 1.9 66.1 2.6 81.5 1.1 4.4-.5 9.8-1 12-1.2 3.4-.2 10.5-1.2 15.5-2 .8-.2 3.5-.6 6-.9 26-4 57.6-13.7 81-24.9 46.5-22.3 79.4-54.1 100.6-97.2 10-20.4 17.4-45.3 20-66.5.3-3 .8-6.9 1-8.5.3-1.7.6-12.7.8-24.5.3-26.9-1.2-42.1-6.4-62.6-14.6-57.7-57.5-101.1-130.1-131.4-6.8-2.9-15.5-6.3-19.4-7.7-3.8-1.3-7.9-2.8-9-3.3-1.1-.5-4.9-1.8-8.5-3-3.6-1.2-7.4-2.5-8.5-3-3.4-1.6-34.1-10.6-59.6-17.5-30.7-8.4-31-8.5-33.3-9-1-.2-8.2-2.3-16-4.5-50.2-14.6-72.2-24.1-87.2-37.7-11.4-10.3-17.4-26.9-16.8-46.9.3-15 4.8-26.4 14.3-36.6 17.1-18.6 41.3-26.9 78.1-27.1 25.6-.1 45.4 2.6 69 9.4 33.6 9.8 76.8 30.8 114.8 56.1 5.6 3.7 10.6 6.8 11 6.8.4-.1 5.1-6.5 10.4-14.3 5.3-7.8 12-17.6 14.9-21.7 2.9-4.1 8.1-11.8 11.7-17 3.6-5.2 8.4-12.2 10.7-15.5 2.3-3.3 7.2-10.5 11-16s11.1-16 16.2-23.4c5.1-7.3 9.3-13.7 9.3-14.1 0-1.9-29-22.4-47-33.2-36.4-21.9-83.2-41.2-120-49.3-6.9-1.5-16.6-3.6-19.2-4-18.5-3.3-20.7-3.6-34.8-5-2.5-.3-6.1-.7-8-.9-7.4-1-53.5-2.6-54.3-2z"/></svg>