<svg width="23" height="22" viewBox="0 0 23 22" fill="none" xmlns="http://www.w3.org/2000/svg">
<path d="M21.632 19.7769L16.2179 14.5433C17.4547 13.0868 18.201 11.2237 18.201 9.19308C18.201 4.52959 14.2789 0.75 9.47536 0.75C4.6718 0.75 0.75 4.52984 0.75 9.19331C0.75 13.8568 4.67182 17.6362 9.47536 17.6362C11.575 17.6362 13.5033 16.9131 15.0108 15.712L20.4364 20.9566C20.6029 21.1175 20.82 21.1967 21.0345 21.1967C21.2486 21.1967 21.4657 21.1176 21.632 20.9567C21.9682 20.632 21.9682 20.1016 21.632 19.7769ZM2.45 9.19308C2.45 5.46096 5.59378 2.41 9.47536 2.41C13.3572 2.41 16.501 5.46119 16.501 9.19308C16.501 12.925 13.3572 15.9759 9.47536 15.9759C5.59377 15.9759 2.45 12.925 2.45 9.19308Z" fill="black" stroke="black" stroke-width="0.5"/>
</svg>
