<svg width="70" height="51" viewBox="0 0 70 51" fill="none" xmlns="http://www.w3.org/2000/svg">
<path d="M3.08615 0C1.41643 0 0 1.41861 0 3.09091V47.9091C0 49.5813 1.41643 51 3.08615 51H66.3523C68.022 51 69.4385 49.5813 69.4385 47.9091V3.09091C69.4385 1.41861 68.022 0 66.3523 0H3.08615ZM6.94385 4.63636H62.4946L34.7192 27.142L6.94385 4.63636ZM4.62923 8.69318L33.2726 31.9233C33.6831 32.2524 34.1934 32.4318 34.7192 32.4318C35.2451 32.4318 35.7553 32.2524 36.1659 31.9233L64.8092 8.69318V46.3636H4.62923V8.69318Z" fill="#E5E5E5"/>
</svg>
