<svg width="21" height="21" viewBox="0 0 21 21" fill="none" xmlns="http://www.w3.org/2000/svg">
<path d="M16.625 5.60875L7.6125 14.6212C7.5334 14.7122 7.43634 14.7859 7.32742 14.8376C7.21851 14.8893 7.10008 14.918 6.97957 14.9218C6.85906 14.9255 6.73907 14.9044 6.62712 14.8596C6.51518 14.8148 6.4137 14.7474 6.32905 14.6615C6.2444 14.5756 6.17841 14.4732 6.13521 14.3606C6.09202 14.2481 6.07256 14.1278 6.07805 14.0074C6.08353 13.8869 6.11386 13.7689 6.16711 13.6607C6.22036 13.5526 6.29539 13.4566 6.3875 13.3787L15.3825 4.375H12.25C12.0179 4.375 11.7954 4.28281 11.6313 4.11872C11.4672 3.95462 11.375 3.73206 11.375 3.5C11.375 3.26794 11.4672 3.04538 11.6313 2.88128C11.7954 2.71719 12.0179 2.625 12.25 2.625H17.5C17.7321 2.625 17.9546 2.71719 18.1187 2.88128C18.2828 3.04538 18.375 3.26794 18.375 3.5V8.75C18.375 8.98206 18.2828 9.20462 18.1187 9.36872C17.9546 9.53281 17.7321 9.625 17.5 9.625C17.2679 9.625 17.0454 9.53281 16.8813 9.36872C16.7172 9.20462 16.625 8.98206 16.625 8.75V5.60875ZM14.875 12.25C14.875 12.0179 14.9672 11.7954 15.1313 11.6313C15.2954 11.4672 15.5179 11.375 15.75 11.375C15.9821 11.375 16.2046 11.4672 16.3687 11.6313C16.5328 11.7954 16.625 12.0179 16.625 12.25V16.625C16.625 17.0891 16.4406 17.5342 16.1124 17.8624C15.7842 18.1906 15.3391 18.375 14.875 18.375H4.375C3.91087 18.375 3.46575 18.1906 3.13756 17.8624C2.80937 17.5342 2.625 17.0891 2.625 16.625V6.125C2.625 5.1625 3.4125 4.375 4.375 4.375H8.75C8.98206 4.375 9.20462 4.46719 9.36872 4.63128C9.53281 4.79538 9.625 5.01794 9.625 5.25C9.625 5.48206 9.53281 5.70462 9.36872 5.86872C9.20462 6.03281 8.98206 6.125 8.75 6.125H4.375V16.625H14.875V12.25Z" fill="#0198C0"/>
</svg>
