<svg width="136" height="131" viewBox="0 0 136 131" fill="none" xmlns="http://www.w3.org/2000/svg">
<path d="M1.172 75.0617L26.6226 0H58.6402L33.9798 74.8997L1.172 75.0617Z" fill="url(#paint0_linear)"/>
<path d="M51.9093 75.0617L77.3599 0H109.378L84.7444 74.8997L51.9093 75.0617Z" fill="url(#paint1_linear)"/>
<path d="M59.7576 2.70113L44.0621 49.5101L51.1196 70.9293L67.5781 24.2824L59.7576 2.70113Z" fill="url(#paint2_linear)"/>
<path d="M94.6633 49.9962L110.522 2.70113L135.809 75.2239L103.301 74.8998L94.6633 49.9962Z" fill="url(#paint3_linear)"/>
<path d="M21.4995 130.865C17.6301 130.865 13.8425 130.217 10.1366 128.893C6.43077 127.57 3.05189 125.571 0 122.843L6.59427 115.037C8.91044 116.901 11.2811 118.386 13.7335 119.494C16.1587 120.601 18.8291 121.141 21.7175 121.141C24.0337 121.141 25.8321 120.736 27.1128 119.899C28.3935 119.062 29.0202 117.9 29.0202 116.415V116.279C29.0202 115.55 28.884 114.929 28.6115 114.389C28.339 113.849 27.8485 113.335 27.0856 112.849C26.3226 112.363 25.2871 111.904 23.9792 111.418C22.644 110.931 20.9273 110.445 18.8018 109.905C16.2404 109.284 13.9243 108.582 11.8261 107.825C9.75516 107.069 7.98397 106.124 6.53977 104.989C5.09557 103.855 3.95111 102.477 3.16089 100.803C2.37067 99.1279 1.96193 97.0481 1.96193 94.5632V94.4281C1.96193 92.1322 2.39792 90.0524 3.24264 88.2157C4.11461 86.379 5.31356 84.7854 6.86676 83.4349C8.41996 82.0844 10.2729 81.058 12.4528 80.3557C14.6055 79.6264 17.0034 79.2753 19.5921 79.2753C23.2979 79.2753 26.7313 79.8155 29.8377 80.9229C32.9441 82.0304 35.8052 83.597 38.4212 85.6497L32.6444 93.9689C30.3827 92.4293 28.1483 91.2409 25.9956 90.3495C23.8157 89.4582 21.663 89.026 19.4831 89.026C17.3031 89.026 15.6954 89.4582 14.6055 90.2685C13.5155 91.1058 12.9705 92.1322 12.9705 93.4017V93.5368C12.9705 94.3471 13.134 95.0493 13.4338 95.6436C13.7608 96.2378 14.3057 96.778 15.1505 97.2642C15.9679 97.7504 17.0851 98.2095 18.5294 98.6147C19.9463 99.0469 21.7447 99.5601 23.9247 100.127C26.4861 100.803 28.775 101.559 30.7914 102.396C32.8078 103.233 34.4973 104.233 35.8597 105.421C37.2494 106.583 38.2849 107.96 38.9661 109.554C39.6746 111.12 40.0288 113.011 40.0288 115.226V115.361C40.0288 117.846 39.5656 120.061 38.6664 122.006C37.7672 123.95 36.4865 125.571 34.8515 126.895C33.2166 128.218 31.2819 129.217 29.0202 129.92C26.7313 130.514 24.2516 130.865 21.4995 130.865Z" fill="#231F20"/>
<path d="M67.6597 131C63.9539 131 60.4932 130.325 57.3051 129.001C54.117 127.651 51.3648 125.841 49.0486 123.518C46.7325 121.195 44.934 118.467 43.6261 115.307C42.3181 112.147 41.6642 108.771 41.6642 105.205V105.07C41.6642 101.478 42.3181 98.1285 43.6261 94.9953C44.934 91.8621 46.7325 89.107 49.0486 86.7571C51.3648 84.3802 54.1442 82.5165 57.3596 81.166C60.6022 79.8155 64.1719 79.1132 68.0685 79.1132C70.4391 79.1132 72.5918 79.3023 74.5538 79.6804C76.5157 80.0586 78.2869 80.5988 79.8673 81.247C81.4478 81.9223 82.9192 82.7326 84.2817 83.6779C85.6441 84.6233 86.8976 85.6767 88.042 86.8381L80.9573 94.9412C78.9681 93.1856 76.9517 91.781 74.908 90.7816C72.8643 89.7823 70.5481 89.2691 67.9867 89.2691C65.8613 89.2691 63.8994 89.6742 62.1009 90.4845C60.3025 91.2948 58.7493 92.4293 57.4414 93.8608C56.1334 95.2924 55.1252 96.967 54.3895 98.8577C53.6537 100.748 53.2995 102.774 53.2995 104.908V105.043C53.2995 107.204 53.6537 109.23 54.3895 111.147C55.1252 113.065 56.1062 114.74 57.3869 116.171C58.6676 117.603 60.2208 118.737 62.0192 119.575C63.8176 120.412 65.8068 120.817 67.9867 120.817C70.8751 120.817 73.3275 120.304 75.344 119.251C77.3332 118.197 79.3223 116.766 81.3115 114.956L88.3963 122.06C87.0883 123.437 85.7531 124.68 84.3362 125.787C82.9465 126.894 81.3933 127.84 79.7311 128.623C78.0689 129.406 76.2432 130.001 74.2813 130.406C72.3466 130.784 70.1122 131 67.6597 131Z" fill="#231F20"/>
<path d="M115.264 131C111.558 131 108.097 130.325 104.909 129.001C101.721 127.651 98.9688 125.841 96.6527 123.518C94.3365 121.195 92.5381 118.467 91.2301 115.307C89.9222 112.147 89.2682 108.771 89.2682 105.205V105.07C89.2682 101.478 89.9222 98.1285 91.2301 94.9953C92.5381 91.8621 94.3365 89.107 96.6527 86.7571C98.9688 84.3802 101.748 82.5165 104.964 81.166C108.206 79.8155 111.776 79.1132 115.673 79.1132C118.043 79.1132 120.196 79.3023 122.158 79.6804C124.12 80.0586 125.891 80.5988 127.471 81.247C129.052 81.9223 130.523 82.7326 131.886 83.6779C133.248 84.6233 134.502 85.6767 135.646 86.8381L128.561 94.9412C126.572 93.1856 124.556 91.781 122.512 90.7816C120.468 89.7823 118.152 89.2691 115.591 89.2691C113.465 89.2691 111.503 89.6742 109.705 90.4845C107.907 91.2948 106.353 92.4293 105.045 93.8608C103.737 95.2924 102.729 96.967 101.993 98.8577C101.258 100.748 100.904 102.774 100.904 104.908V105.043C100.904 107.204 101.258 109.23 101.993 111.147C102.729 113.065 103.71 114.74 104.991 116.171C106.272 117.603 107.825 118.737 109.623 119.575C111.422 120.412 113.411 120.817 115.591 120.817C118.479 120.817 120.932 120.304 122.948 119.251C124.937 118.197 126.926 116.766 128.916 114.956L136 122.06C134.692 123.437 133.357 124.68 131.94 125.787C130.55 126.894 128.997 127.84 127.335 128.623C125.673 129.406 123.847 130.001 121.885 130.406C119.951 130.784 117.716 131 115.264 131Z" fill="#231F20"/>
<defs>
<linearGradient id="paint0_linear" x1="6.58867" y1="78.165" x2="53.1272" y2="-3.15446" gradientUnits="userSpaceOnUse">
<stop offset="0.00537634" stop-color="#E60000"/>
<stop offset="1" stop-color="#A30000"/>
</linearGradient>
<linearGradient id="paint1_linear" x1="80.6517" y1="75.0613" x2="80.6517" y2="0" gradientUnits="userSpaceOnUse">
<stop offset="0.1344" stop-color="#FFE400"/>
<stop offset="1" stop-color="#E6B300"/>
</linearGradient>
<linearGradient id="paint2_linear" x1="55.8232" y1="70.9354" x2="55.8232" y2="2.69788" gradientUnits="userSpaceOnUse">
<stop offset="0.00537634" stop-color="#009FC7"/>
<stop offset="1" stop-color="#004B7A"/>
</linearGradient>
<linearGradient id="paint3_linear" x1="115.232" y1="75.2201" x2="115.232" y2="2.69788" gradientUnits="userSpaceOnUse">
<stop stop-color="#5DDB00"/>
<stop offset="1" stop-color="#287A00"/>
</linearGradient>
</defs>
</svg>
