<svg width="18" height="15" viewBox="0 0 18 15" fill="none" xmlns="http://www.w3.org/2000/svg">
<path d="M18 1.77562C17.3383 2.07723 16.6261 2.28069 15.8789 2.37173C16.6419 1.90338 17.2268 1.16151 17.5027 0.276515C16.7891 0.710771 15.9991 1.02588 15.1577 1.19598C14.4843 0.460109 13.5244 0 12.4622 0C10.423 0 8.76962 1.69543 8.76962 3.78691C8.76962 4.08328 8.80214 4.37216 8.86536 4.6498C5.79611 4.49168 3.07472 2.98434 1.25327 0.693161C0.935388 1.25219 0.753426 1.90263 0.753426 2.59729C0.753426 3.91093 1.40527 5.07019 2.3962 5.74911C1.79112 5.72925 1.22148 5.55877 0.723464 5.27514C0.723098 5.29088 0.723098 5.30699 0.723098 5.3231C0.723098 7.15754 1.9961 8.68774 3.68565 9.03619C3.3758 9.12237 3.04951 9.16883 2.71262 9.16883C2.47439 9.16883 2.2431 9.14523 2.01766 9.10064C2.48791 10.605 3.85153 11.7002 5.46727 11.7305C4.2034 12.7463 2.61141 13.3518 0.880945 13.3518C0.583156 13.3518 0.28902 13.3338 0 13.2986C1.63474 14.3735 3.57567 15 5.66092 15C12.4538 15 16.168 9.2299 16.168 4.22566C16.168 4.06155 16.1647 3.89781 16.1577 3.7352C16.879 3.2024 17.5053 2.53509 18 1.77562Z" fill="white"/>
</svg>
