<svg width="61" height="60" viewBox="0 0 61 60" fill="none" xmlns="http://www.w3.org/2000/svg">
<path d="M30.6355 0C13.8692 0 0.301025 13.4185 0.301025 30C0.301025 46.5335 13.8692 60 30.6355 60C47.3534 60 60.97 46.5815 60.97 30C60.9215 13.4185 47.3534 0 30.6355 0ZM30.6355 57.7955C15.1291 57.7955 2.53008 45.3355 2.53008 30C2.53008 14.6645 15.1291 2.20447 30.6355 2.20447C46.1419 2.20447 58.7409 14.6645 58.7409 30C58.7409 45.3355 46.1419 57.7955 30.6355 57.7955Z" fill="#114C8D"/>
<path d="M39.0671 19.3611H39.5517C39.9393 19.2652 40.2301 18.9297 40.2301 18.4984C40.2301 18.0192 39.8424 17.5879 39.3094 17.5879C38.8248 17.5879 38.3887 17.9713 38.3887 18.4984C38.4371 18.9297 38.6794 19.2652 39.0671 19.3611Z" fill="#114C8D"/>
<path d="M30.6356 4.16925C16.1953 4.16925 4.51697 15.7188 4.51697 29.9999C4.51697 44.2331 16.1953 55.7827 30.5872 55.7827C44.9791 55.7827 56.6574 44.2331 56.6574 29.9999C56.7058 15.7188 45.0275 4.16925 30.6356 4.16925ZM23.4154 15.8146H25.9352C26.4198 15.8146 26.8559 16.198 26.8559 16.7252C26.8559 17.2044 26.4683 17.6357 25.9352 17.6357H23.4154C22.9309 17.6357 22.4947 17.2523 22.4947 16.7252C22.4947 16.2459 22.9309 15.8146 23.4154 15.8146ZM20.7503 19.313C21.2349 19.313 21.671 19.6964 21.671 20.2236C21.671 20.7507 21.2833 21.1341 20.7503 21.1341C20.2657 21.1341 19.8296 20.7507 19.8296 20.2236C19.8296 19.6964 20.2657 19.313 20.7503 19.313ZM13.8693 26.5494H17.9882C18.4728 26.5494 18.9089 26.9328 18.9089 27.46C18.9089 27.9392 18.5212 28.3705 17.9882 28.3705H13.8693C13.3847 28.3705 12.9486 27.9871 12.9486 27.46C12.9486 26.9808 13.3847 26.5494 13.8693 26.5494ZM9.21736 35.607C8.73278 35.607 8.29666 35.2236 8.29666 34.6964C8.29666 34.2172 8.68432 33.7859 9.21736 33.7859C9.70193 33.7859 10.1381 34.1693 10.1381 34.6964C10.1381 35.2236 9.70193 35.607 9.21736 35.607ZM30.1026 28.5143C29.9088 28.7539 29.7634 28.9935 29.618 29.2811C29.4726 29.5207 29.3273 29.8082 29.2304 30.0478C29.2304 30.0958 29.2304 30.0958 29.1819 30.1437C29.085 30.3833 28.9881 30.575 28.9396 30.8146C28.8427 31.0542 28.7942 31.3418 28.7458 31.5814C28.6973 31.6772 28.6973 31.821 28.6973 31.9648C28.6973 32.1085 28.6489 32.2044 28.6489 32.3482C28.6004 32.5878 28.6004 32.8753 28.6004 33.1149C28.6004 33.3066 28.6004 33.4983 28.6004 33.7379V33.7859C28.6004 33.8338 28.6004 33.8338 28.6004 33.8817C28.6004 34.1213 28.6489 34.4089 28.6973 34.6485C28.7458 34.8881 28.7458 35.1756 28.7942 35.4153C28.7942 35.4632 28.7942 35.5111 28.7942 35.559C28.8427 35.7507 28.8427 35.9903 28.8912 36.182C28.9396 36.4216 28.9881 36.7092 29.0365 36.9488C29.0365 36.9967 29.0365 36.9967 29.0365 37.0447C29.0365 37.0926 29.0365 37.1884 29.0365 37.2363C29.0365 37.2363 29.0365 37.2843 29.0365 37.3322C29.085 37.5718 29.1819 38.2907 28.9396 39.1533C28.6489 40.2076 27.922 41.5494 25.9352 42.4121C25.9352 42.4121 26.7106 40.4951 25.8868 39.2491L25.8383 39.1533H19.6842C19.1996 39.1533 18.7635 38.7699 18.7635 38.2427C18.7635 37.8114 19.1027 37.428 19.4904 37.3322H24.9176C24.9661 37.3322 25.0145 37.3322 25.1115 37.3322C25.5476 37.2363 25.8383 36.9009 25.8383 36.4216C25.8383 35.9903 25.4991 35.607 25.1115 35.5111H24.3846H12.2217C12.1733 35.5111 12.0764 35.5111 12.0279 35.5111C11.5918 35.4153 11.301 35.0798 11.301 34.6006C11.301 34.1213 11.6402 33.7859 12.0279 33.69H23.7062H26.4683C26.5167 33.69 26.6136 33.69 26.6621 33.69C27.0982 33.5942 27.389 33.2587 27.389 32.7795C27.389 32.3482 27.0498 31.9648 26.6621 31.8689C26.6136 31.8689 26.5652 31.8689 26.4683 31.8689H23.9H16.1468C15.7107 31.7731 15.4199 31.4376 15.4199 30.9584C15.4199 30.5271 15.7591 30.1437 16.1468 30.0478H24.4331H25.1599C25.2084 30.0478 25.3053 30.0478 25.3538 30.0478C25.7899 29.952 26.0806 29.6165 26.0806 29.1373C26.0806 28.706 25.7414 28.3226 25.3538 28.2268H25.1599H20.508C20.4595 28.2268 20.3626 28.2268 20.3142 28.2268C19.878 28.1309 19.5873 27.7954 19.5873 27.3162C19.5873 26.8849 19.9265 26.5015 20.3142 26.4057H25.9837H27.8251C27.8735 26.4057 27.9705 26.4057 28.0189 26.4057C28.455 26.3098 28.7458 25.9744 28.7458 25.4951C28.7458 25.0638 28.4066 24.6804 28.0189 24.5846H27.0013H24.3846C24.3361 24.5846 24.2392 24.5846 24.1908 24.5846C23.7546 24.4887 23.4639 24.1533 23.4639 23.674C23.4639 23.2427 23.8031 22.8593 24.1908 22.7635H28.2127H30.3449C30.3933 22.7635 30.4903 22.7635 30.5387 22.7635C30.9748 22.6677 31.2656 22.3322 31.2656 21.853C31.2656 21.4216 30.9264 21.0383 30.5387 20.9424H29.8603H23.7062C23.6577 20.9424 23.5608 20.9424 23.5124 20.9424C23.0762 20.8466 22.7855 20.5111 22.7855 20.0319C22.7855 19.6006 23.1247 19.2172 23.5124 19.1213H32.8647H35.8206C35.8691 19.1213 35.966 19.1213 36.0144 19.1213C36.4505 19.0255 36.7413 18.69 36.7413 18.2108C36.7413 17.7795 36.4021 17.3961 36.0144 17.3002H28.8912C28.8427 17.3002 28.7458 17.3002 28.6973 17.3002C28.2612 17.2044 27.9705 16.8689 27.9705 16.3897C27.9705 15.9584 28.3097 15.575 28.6973 15.4792H39.1642H41.2963C41.3448 15.4792 41.4417 15.4792 41.4901 15.4792C41.9263 15.3833 42.217 15.0478 42.217 14.5686C42.217 14.1373 41.8778 13.7539 41.4901 13.6581H40.1333H35.4814C35.4329 13.6581 35.336 13.6581 35.2876 13.6581C34.8514 13.5622 34.5607 13.2268 34.5607 12.7475C34.5607 12.2683 34.9484 11.837 35.4814 11.837H42.1686H42.3624C43.2346 11.8849 44.0099 12.3162 44.4945 12.9871C44.4945 12.9871 44.543 13.0351 44.543 13.083C44.6399 13.2268 44.6884 13.4185 44.7853 13.5622C44.8822 13.8018 44.9791 14.0415 45.0276 14.0894C45.0276 14.1373 45.076 14.1852 45.076 14.1852V14.2331C45.1729 14.4728 45.2214 14.7603 45.2698 14.9999C45.2698 15.0958 45.3183 15.1916 45.3183 15.3354C45.3668 15.4792 45.3668 15.6229 45.3668 15.7667C45.3668 15.9105 45.3668 16.0063 45.4152 16.1501C45.4152 16.2939 45.4152 16.3897 45.4152 16.5335C45.4152 16.7252 45.4152 16.9169 45.4152 17.1085C45.4152 17.1565 45.4152 17.2044 45.4152 17.3002C45.4152 17.6357 45.3668 17.9712 45.3183 18.2587C45.3668 18.9776 45.3668 19.1693 45.3183 19.3609C45.2214 19.8881 45.0276 20.4153 44.8337 20.8945C44.7853 20.9903 44.7853 21.0862 44.7368 21.1341C44.4945 21.7571 44.2038 22.2843 43.913 22.6677C43.8646 22.7635 43.8161 22.8114 43.7192 22.9073C43.4284 23.2427 43.0892 23.5782 42.7016 23.8178C42.1686 24.2491 41.5386 24.5367 40.8602 24.7284C40.3756 24.8721 39.8426 24.968 39.3096 25.0159C39.1642 25.0159 39.0673 25.0638 38.9219 25.0638C38.7281 25.1117 38.5342 25.1117 38.3404 25.1117C37.3712 25.2076 36.4021 25.2076 35.4814 25.3034C35.2391 25.3514 34.9968 25.3993 34.7545 25.4472C34.7061 25.4472 34.7061 25.4472 34.6576 25.4472C33.9792 25.591 33.3493 25.8306 32.7193 26.1661C32.5255 26.2619 32.3316 26.3577 32.1378 26.5015C32.0409 26.5974 31.8955 26.6453 31.7986 26.7411C31.7017 26.837 31.6048 26.8849 31.5079 26.9808C31.2171 27.2204 30.9264 27.46 30.6841 27.7475C30.4903 27.9392 30.3449 28.1309 30.1511 28.3705C30.1995 28.4185 30.1511 28.4664 30.1026 28.5143ZM40.7148 35.2236L40.8602 35.6549L44.3491 37.0447L44.6399 37.1405C44.6399 37.3322 44.6399 37.6197 44.6883 37.9073C44.8337 39.7763 45.4152 43.1788 46.8205 45.7667C46.8205 45.7667 41.3932 43.6581 38.2435 41.9808C38.195 41.9328 38.0981 41.9328 38.0497 41.8849L37.5651 40.591L37.1774 39.5367L36.3052 37.0926L35.6752 35.2236H35.6268L36.0144 37.0447L36.0629 37.2843L34.27 38.7699L32.3801 40.3514L32.7193 39.0574L32.8647 38.4344C32.9131 38.099 32.9131 37.8593 32.9131 37.8593C32.9131 37.6197 32.9131 37.428 32.8647 37.1405V37.0926V37.0447H32.4286C31.944 37.0447 31.5079 36.6613 31.5079 36.1341C31.5079 35.7028 31.8471 35.3194 32.2347 35.2715H32.8162C32.8647 35.2715 32.9616 35.2715 33.0101 35.2715C33.4462 35.1756 33.7369 34.8402 33.7369 34.3609C33.7369 33.9296 33.3977 33.5462 33.0101 33.4504C32.9616 33.4504 32.9131 33.4504 32.8162 33.4504H32.0894H30.8779C30.4418 33.3546 30.1511 33.0191 30.1511 32.5399C30.1511 32.0606 30.4903 31.7252 30.8779 31.6293H32.477H34.7061C34.7545 31.6293 34.8514 31.6293 34.8999 31.6293C35.336 31.5335 35.6268 31.198 35.6268 30.7188C35.6268 30.2875 35.2876 29.9041 34.8999 29.8082C34.8514 29.8082 34.803 29.8082 34.7061 29.8082H33.5431C33.107 29.7124 32.8162 29.3769 32.8162 28.8977C32.8162 28.4185 33.2039 27.9871 33.7369 27.9871H35.5783C36.1598 27.6517 36.7413 27.3641 37.4197 27.2204C37.9527 27.0766 38.5342 27.0287 39.1642 27.0287C40.4725 27.0287 41.7324 27.4121 42.75 28.0351C43.0892 28.2268 43.4284 28.4664 43.7192 28.7539C43.5254 29.0415 43.2346 29.4248 42.847 29.8562C42.4108 30.3833 41.8293 31.0063 41.1025 31.6293C40.4241 32.2044 39.6003 32.8274 38.6796 33.4504H38.7281C39.4065 33.067 40.4241 32.444 41.5386 31.6293C42.2655 31.1022 42.9923 30.5271 43.7192 29.8562C43.913 29.6645 44.1069 29.5207 44.2522 29.329C44.6399 28.9456 45.0276 28.5143 45.3668 28.083L45.609 29.8562L45.8513 31.6293L46.0936 33.4504L46.3359 35.2236L46.5782 37.0447L46.9659 39.5846L45.3668 38.4344V36.9967V36.7092L45.2698 35.3194V35.1756L45.2214 34.6485L42.4593 34.1213L42.0232 34.0255L40.0849 33.6421L40.7148 35.2236Z" fill="#114C8D"/>
</svg>
