<svg width="17" height="15" viewBox="0 0 17 15" fill="none" xmlns="http://www.w3.org/2000/svg">
<path d="M12.8088 14.9883V8.92684C12.8088 8.92684 12.6293 7.30536 11.0605 7.30536C9.49269 7.30536 9.20588 8.84682 9.20588 8.84682V14.9883H5.97466L6.02736 4.97561H9.15321L9.12783 6.23416C9.12783 6.23416 9.77957 4.58927 12.2351 4.58927C14.6898 4.58927 15.802 6.00001 16.0088 8.63806C16.0088 11.2771 16.0088 14.9883 16.0088 14.9883H12.8088ZM2.01172 3.55318C0.901463 3.55318 0 2.75902 0 1.77758C0 0.796128 0.901463 0 2.01172 0C3.12198 0 4.02344 0.796097 4.02344 1.77758C4.02344 2.75905 3.12195 3.55318 2.01172 3.55318ZM4.00587 15H0.0331863V5.00099L4.00587 4.97561V15Z" fill="#FFE400"/>
</svg>
